  0
SECTION
  2
HEADER
  9
$ACADVER
  1
AC1032
  9
$DWGCODEPAGE
  3
ANSI_1252
  9
$INSBASE
 10
0
 20
0
 30
0
  9
$EXTMIN
 10
0
 20
-28.222222
 30
0
  9
$EXTMAX
 10
38.805556
 20
0
 30
0
  9
$LIMMIN
 10
0
 20
0
  9
$LIMMAX
 10
0
 20
0
  9
$LWDISPLAY
290
1
  9
$INSUNITS
 70
4
  9
$MEASUREMENT
 70
1
  9
$HANDSEED
  5
3A
  0
ENDSEC
  0
SECTION
  2
CLASSES
  0
CLASS
  1
ACDBDICTIONARYWDFLT
  2
AcDbDictionaryWithDefault
  3
ObjectDBX Classes
 90
0
 91
0
280
0
281
0
  0
CLASS
  1
ACDBPLACEHOLDER
  2
AcDbPlaceHolder
  3
ObjectDBX Classes
 90
0
 91
0
280
0
281
0
  0
CLASS
  1
LAYOUT
  2
AcDbLayout
  3
ObjectDBX Classes
 90
0
 91
0
280
0
281
0
  0
ENDSEC
  0
SECTION
  2
TABLES
  0
TABLE
  2
VPORT
  5
8
330
0
100
AcDbSymbolTable
 70
1
  0
VPORT
  5
15
330
8
100
AcDbSymbolTableRecord
100
AcDbViewportTableRecord
  2
*Active
 70
0
 10
0
 20
0
 11
1
 21
1
 12
19.402778
 22
-14.111111
 13
0
 23
0
 14
1
 24
1
 15
10
 25
10
 16
0
 26
0
 36
0
 36
1
 17
0
 27
0
 37
0
 40
31.044444
 41
1.5
 42
50
 43
0
 44
0
 50
0
 51
0
 71
0
 72
1000
 73
1
 74
3
 75
0
 76
0
 77
0
 78
0
281
0
 65
0
146
0
  0
ENDTAB
  0
TABLE
  2
LTYPE
  5
2
330
0
100
AcDbSymbolTable
 70
3
  0
LTYPE
  5
34
330
2
100
AcDbSymbolTableRecord
100
AcDbLinetypeTableRecord
  2
ByBlock
 70
0
  3

 72
65
 73
0
 40
0
  0
LTYPE
  5
35
330
2
100
AcDbSymbolTableRecord
100
AcDbLinetypeTableRecord
  2
ByLayer
 70
0
  3

 72
65
 73
0
 40
0
  0
LTYPE
  5
36
330
2
100
AcDbSymbolTableRecord
100
AcDbLinetypeTableRecord
  2
Continuous
 70
0
  3
Solid line
 72
65
 73
0
 40
0
  0
ENDTAB
  0
TABLE
  2
LAYER
  5
1
330
0
100
AcDbSymbolTable
 70
2
  0
LAYER
  5
37
330
1
100
AcDbSymbolTableRecord
100
AcDbLayerTableRecord
  2
0
 70
0
 62
7
  6
Continuous
290
1
370
-3
390
1B
  0
LAYER
  5
38
330
1
100
AcDbSymbolTableRecord
100
AcDbLayerTableRecord
  2
Layer 1
 70
0
 62
171
  6
Continuous
290
1
370
-3
390
1B
  0
ENDTAB
  0
TABLE
  2
STYLE
  5
5
330
0
100
AcDbSymbolTable
 70
1
  0
STYLE
  5
39
330
5
100
AcDbSymbolTableRecord
100
AcDbTextStyleTableRecord
  2
Standard
 70
0
 40
0
 41
1
 50
0
 71
0
 42
2.5
  3
txt
  4

  0
ENDTAB
  0
TABLE
  2
VIEW
  5
7
330
0
100
AcDbSymbolTable
 70
0
  0
ENDTAB
  0
TABLE
  2
UCS
  5
6
330
0
100
AcDbSymbolTable
 70
0
  0
ENDTAB
  0
TABLE
  2
APPID
  5
3
330
0
100
AcDbSymbolTable
 70
1
  0
APPID
  5
16
330
3
100
AcDbSymbolTableRecord
100
AcDbRegAppTableRecord
  2
ACAD
 70
0
  0
ENDTAB
  0
TABLE
  2
DIMSTYLE
  5
4
330
0
100
AcDbSymbolTable
 70
1
100
AcDbDimStyleTable
  0
DIMSTYLE
105
17
330
4
100
AcDbSymbolTableRecord
100
AcDbDimStyleTableRecord
  2
Standard
 70
0
  0
ENDTAB
  0
TABLE
  2
BLOCK_RECORD
  5
9
330
0
100
AcDbSymbolTable
 70
2
  0
BLOCK_RECORD
  5
D
330
9
100
AcDbSymbolTableRecord
100
AcDbBlockTableRecord
  2
*Model_Space
340
13
 70
0
280
1
281
0
  0
BLOCK_RECORD
  5
E
330
9
100
AcDbSymbolTableRecord
100
AcDbBlockTableRecord
  2
*Paper_Space
340
14
 70
0
280
1
281
0
  0
ENDTAB
  0
ENDSEC
  0
SECTION
  2
BLOCKS
  0
BLOCK
  5
F
330
D
100
AcDbEntity
  8
0
100
AcDbBlockBegin
  2
*Model_Space
 70
0
 10
0
 20
0
 30
0
  3
*Model_Space
  1

  0
ENDBLK
  5
10
330
D
100
AcDbEntity
  8
0
100
AcDbBlockEnd
  0
BLOCK
  5
11
330
E
100
AcDbEntity
  8
0
100
AcDbBlockBegin
  2
*Paper_Space
 70
0
 10
0
 20
0
 30
0
  3
*Paper_Space
  1

  0
ENDBLK
  5
12
330
E
100
AcDbEntity
  8
0
100
AcDbBlockEnd
  0
ENDSEC
  0
SECTION
  2
ENTITIES
  0
HATCH
  5
30
330
D
100
AcDbEntity
  8
Layer 1
 62
22
420
13117480
100
AcDbHatch
 10
0
 20
0
 30
0
210
0
220
0
230
1
  2
SOLID
 70
1
 71
0
 91
1
 92
3
 72
0
 73
1
 93
4
 10
3.527778
 20
-3.527778
 10
21.166667
 20
-3.527778
 10
21.166667
 20
-17.638889
 10
3.527778
 20
-17.638889
 97
0
 75
0
 76
1
 98
0
  0
HATCH
  5
31
330
D
100
AcDbEntity
  8
Layer 1
 62
152
420
1333960
440
33554611
100
AcDbHatch
 10
0
 20
0
 30
0
210
0
220
0
230
1
  2
SOLID
 70
1
 71
0
 91
1
 92
3
 72
0
 73
1
 93
60
 10
14.111111
 20
-17.638889
 10
14.176359
 20
-16.548439
 10
14.362618
 20
-15.500172
 10
14.674215
 20
-14.47133
 10
15.11143
 20
-13.458948
 10
15.664167
 20
-12.495946
 10
16.343792
 20
-11.5676
 10
17.133173
 20
-10.701744
 10
18.033159
 20
-9.902138
 10
19.029464
 20
-9.184744
 10
20.122548
 20
-8.553363
 10
21.27861
 20
-8.028761
 10
22.508069
 20
-7.609308
 10
23.786765
 20
-7.303322
 10
25.092162
 20
-7.119944
 10
26.458333
 20
-7.055556
 10
27.824505
 20
-7.119944
 10
29.129902
 20
-7.303322
 10
30.408597
 20
-7.609308
 10
31.638057
 20
-8.028761
 10
32.794118
 20
-8.553363
 10
33.887202
 20
-9.184744
 10
34.883507
 20
-9.902138
 10
35.783494
 20
-10.701744
 10
36.572875
 20
-11.5676
 10
37.2525
 20
-12.495946
 10
37.805237
 20
-13.458948
 10
38.242451
 20
-14.47133
 10
38.554049
 20
-15.500172
 10
38.740307
 20
-16.548439
 10
38.805556
 20
-17.638889
 10
38.740307
 20
-18.729339
 10
38.554049
 20
-19.777606
 10
38.242451
 20
-20.806447
 10
37.805237
 20
-21.81883
 10
37.2525
 20
-22.781832
 10
36.572875
 20
-23.710178
 10
35.783494
 20
-24.576034
 10
34.883507
 20
-25.37564
 10
33.887202
 20
-26.093033
 10
32.794118
 20
-26.724415
 10
31.638057
 20
-27.249017
 10
30.408597
 20
-27.66847
 10
29.129902
 20
-27.974455
 10
27.824505
 20
-28.157834
 10
26.458333
 20
-28.222222
 10
25.092162
 20
-28.157834
 10
23.786765
 20
-27.974455
 10
22.508069
 20
-27.66847
 10
21.27861
 20
-27.249017
 10
20.122548
 20
-26.724415
 10
19.029464
 20
-26.093033
 10
18.033159
 20
-25.37564
 10
17.133173
 20
-24.576034
 10
16.343792
 20
-23.710178
 10
15.664167
 20
-22.781832
 10
15.11143
 20
-21.81883
 10
14.674215
 20
-20.806447
 10
14.362618
 20
-19.777606
 10
14.176359
 20
-18.729339
 97
0
 75
0
 76
1
 98
0
  0
SPLINE
  5
32
330
D
100
AcDbEntity
  8
Layer 1
 62
7
370
70
420
0
440
33554611
100
AcDbSpline
210
0
220
0
230
1
 70
8
 71
3
 72
17
 73
13
 74
0
 40
0
 40
0
 40
0
 40
0
 40
1
 40
1
 40
1
 40
2
 40
2
 40
2
 40
3
 40
3
 40
3
 40
4
 40
4
 40
4
 40
4
 10
14.111111
 20
-17.638889
 30
0
 10
14.111111
 20
-11.793875
 30
0
 10
19.639151
 20
-7.055556
 30
0
 10
26.458333
 20
-7.055556
 30
0
 10
33.277516
 20
-7.055556
 30
0
 10
38.805556
 20
-11.793875
 30
0
 10
38.805556
 20
-17.638889
 30
0
 10
38.805556
 20
-23.483902
 30
0
 10
33.277516
 20
-28.222222
 30
0
 10
26.458333
 20
-28.222222
 30
0
 10
19.639151
 20
-28.222222
 30
0
 10
14.111111
 20
-23.483902
 30
0
 10
14.111111
 20
-17.638889
 30
0
  0
HATCH
  5
33
330
D
100
AcDbEntity
  8
Layer 1
 62
102
420
696380
100
AcDbHatch
 10
0
 20
0
 30
0
210
0
220
0
230
1
  2
SOLID
 70
1
 71
0
 91
1
 92
3
 72
0
 73
1
 93
4
 10
0
 20
0
 10
10.583333
 20
0
 10
10.583333
 20
-10.583333
 10
0
 20
-10.583333
 97
0
 75
0
 76
1
 98
0
  0
ENDSEC
  0
SECTION
  2
OBJECTS
  0
DICTIONARY
  5
A
330
0
100
AcDbDictionary
281
1
  3
ACAD_GROUP
350
B
  3
ACAD_LAYOUT
350
C
  3
ACAD_PLOTSTYLENAME
350
1A
  0
DICTIONARY
  5
B
330
A
100
AcDbDictionary
281
1
  0
DICTIONARY
  5
C
330
A
100
AcDbDictionary
281
1
  3
Layout1
350
14
  3
Model
350
13
  0
ACDBDICTIONARYWDFLT
  5
1A
330
A
100
AcDbDictionary
281
1
  3
Normal
350
1B
100
AcDbDictionaryWithDefault
340
1B
  0
ACDBPLACEHOLDER
  5
1B
330
1A
100
AcDbPlaceHolder
  0
LAYOUT
  5
13
330
C
100
AcDbPlotSettings
  1

  2
none_device
  4

  6

 40
0
 41
0
 42
0
 43
0
 44
0
 45
0
 46
0
 47
0
 48
0
 49
0
140
0
141
0
142
1
143
1
 70
688
 72
1
 73
0
 74
5
  7

 75
16
147
1
148
0
158
0
100
AcDbLayout
  1
Model
 70
1
 71
0
 10
0
 20
0
 11
0
 21
0
 12
0
 22
0
 32
0
 14
0
 24
-28.222222
 34
0
 15
38.805556
 25
0
 35
0
146
0
 13
0
 23
0
 33
0
 16
1
 26
0
 36
0
 17
0
 27
1
 37
0
 76
1
330
D
  0
LAYOUT
  5
14
330
C
100
AcDbPlotSettings
  1

  2
none_device
  4

  6

 40
0
 41
0
 42
0
 43
0
 44
0
 45
0
 46
0
 47
0
 48
0
 49
0
140
0
141
0
142
1
143
1
 70
688
 72
1
 73
0
 74
5
  7

 75
16
147
1
148
0
158
0
100
AcDbLayout
  1
Layout1
 70
1
 71
1
 10
0
 20
0
 11
0
 21
0
 12
0
 22
0
 32
0
 14
0
 24
-28.222222
 34
0
 15
38.805556
 25
0
 35
0
146
0
 13
0
 23
0
 33
0
 16
1
 26
0
 36
0
 17
0
 27
1
 37
0
 76
1
330
E
  0
ENDSEC
  0
EOF
